<svg xmlns="http://www.w3.org/2000/svg" xmlns:xlink="http://www.w3.org/1999/xlink" width="1604px" height="320px" viewBox="0 0 1604 320"><title>logo-y-combinator-white</title><g id="logo-y-combinator-white" stroke="none" stroke-width="1" fill="none" fill-rule="evenodd"><g id="Group-19"><polygon id="Fill-1" fill="#F05F22" points="0 320 320 320 320 0 0 0"></polygon><polygon id="Fill-2" fill="#FFFFFF" points="173 175.8652 173 247.0002 146 247.0002 146 175.8652 77.086 73.0002 110 73.0002 159.628 148.9972 209 73.0002 241.914 73.0002"></polygon><g id="Group-18" transform="translate(425.853900, 73.217000)" fill="#FFFFFF"><path d="M81.754,34.1209 C52.212,34.1209 29.999,57.0209 29.999,86.5629 C29.999,116.1049 52.212,139.2339 81.754,139.2339 C100.761,139.2339 117.25,129.3869 126.181,112.8979 L151.6,128.0139 C137.402,152.2869 110.837,168.0889 81.754,168.0889 C36.182,168.0889 0,131.9059 0,86.5629 C0,41.2209 36.182,5.0379 81.754,5.0379 C111.066,5.0379 137.402,20.6099 151.6,45.1129 L126.181,60.2279 C117.25,43.7399 100.761,34.1209 81.754,34.1209" id="Fill-3"></path><path d="M249.1515,107.1736 C249.1515,88.6246 235.6405,74.6546 218.2355,74.6546 C200.3735,74.6546 186.8625,88.6246 186.8625,107.1736 C186.8625,125.7226 200.3735,139.6926 218.2355,139.6926 C235.4115,139.6926 249.1515,125.7226 249.1515,107.1736 M157.7785,107.1736 C157.7785,73.7386 184.5725,46.9446 218.2355,46.9446 C251.4415,46.9446 278.2345,73.7386 278.2345,107.1736 C278.2345,140.6086 251.4415,167.4026 218.2355,167.4026 C184.5725,167.4026 157.7785,140.6086 157.7785,107.1736" id="Fill-5"></path><path d="M467.1461,97.623 L467.1461,164.783 L438.1461,164.783 L438.1461,102.723 C438.1461,85.319 429.6671,74.327 416.8331,74.327 C403.7711,74.327 394.1461,85.319 394.1461,102.723 L394.1461,164.783 L366.1461,164.783 L366.1461,102.723 C366.1461,85.319 357.3921,74.327 344.4921,74.327 C331.5911,74.327 322.1461,85.319 322.1461,102.723 L322.1461,164.783 L293.1461,164.783 L293.1461,49.783 L322.1461,49.783 L322.1461,64.503 C329.2471,53.463 340.2421,46.563 353.7571,46.563 C368.4181,46.563 380.1001,54.843 387.2011,67.723 C394.5311,56.223 408.0461,46.563 424.9981,46.563 C450.4241,46.563 467.1461,69.103 467.1461,97.623" id="Fill-7"></path><path d="M570.2062,108.4021 C570.2062,89.1661 558.2982,75.4251 541.5812,75.4251 C525.3212,75.4251 512.9552,88.4791 512.9552,108.1731 C512.9552,127.6381 525.5502,140.9221 542.0392,140.9221 C558.2982,140.6921 570.2062,127.1811 570.2062,108.4021 M547.7142,167.7551 C531.7062,167.7551 519.8742,160.4401 513.1462,150.3831 L513.1462,164.7831 L484.1462,164.7831 L484.1462,4.7831 L513.1462,4.7831 L513.1462,63.7541 C520.1062,54.3831 531.9382,47.5251 547.2502,47.5251 C576.9462,47.5251 599.6822,73.1251 600.1462,107.6401 C600.6102,142.6111 577.4102,167.7551 547.7142,167.7551" id="Fill-9"></path><path d="M612.1461,164.783 L641.1461,164.783 L641.1461,49.783 L612.1461,49.783 L612.1461,164.783 Z M608.4451,17.176 C608.4451,7.328 616.6891,0 626.5371,0 C636.1551,0 644.1701,7.328 644.1701,17.176 C644.1701,27.022 636.1551,34.35 626.5371,34.35 C616.6891,34.35 608.4451,27.022 608.4451,17.176 L608.4451,17.176 Z" id="Fill-11"></path><path d="M766.1461,98.083 L766.1461,164.783 L738.1461,164.783 L738.1461,104.326 C738.1461,85.776 728.4691,74.327 714.4131,74.327 C698.9751,74.327 688.1461,88.296 688.1461,104.784 L688.1461,164.783 L660.1461,164.783 L660.1461,49.783 L688.1461,49.783 L688.1461,64.273 C695.9001,53.463 708.4441,46.563 723.0411,46.563 C748.8131,46.563 766.1461,68.643 766.1461,98.083" id="Fill-13"></path><path d="M854.1461,113.7714 L854.1461,111.2954 L824.8341,117.0214 C814.9861,119.3104 809.0321,124.3494 809.0321,130.9904 C809.0321,138.0604 815.5811,143.4324 826.1831,143.1134 C841.5731,142.6494 854.1461,129.1684 854.1461,113.7714 M882.1461,95.3954 L882.1461,164.7834 L854.1461,164.7834 L854.1461,151.5004 C845.6541,160.6604 832.3431,167.5314 817.6541,167.7604 C798.1461,167.7604 780.9331,154.9364 780.9331,132.9514 C780.9331,112.1124 796.5391,100.2034 819.7201,95.6234 L853.4581,89.2114 C851.1621,79.5934 843.8181,72.2654 832.8021,72.2654 C821.7851,72.2654 811.4581,79.1354 805.2611,87.8374 L784.1461,72.4944 C794.9331,57.3794 813.9821,47.3034 832.8021,47.3034 C861.0311,47.3034 882.1461,66.7694 882.1461,95.3954" id="Fill-14"></path><path d="M941.1461,75.783 L941.1461,124.043 C941.1461,133.432 945.2681,137.783 953.7411,137.783 L968.1461,137.783 L968.1461,164.783 L949.7371,164.783 C925.1911,164.783 913.1461,152.783 913.1461,127.629 L913.1461,75.783 L892.1461,75.783 L892.1461,49.783 L912.1461,49.783 L912.1461,21.387 L941.1461,12.456 L941.1461,49.783 L968.1461,49.783 L968.1461,75.783 L941.1461,75.783 Z" id="Fill-15"></path><path d="M1068.9601,107.1736 C1068.9601,88.6246 1055.4491,74.6546 1038.0441,74.6546 C1020.1821,74.6546 1006.6711,88.6246 1006.6711,107.1736 C1006.6711,125.7226 1020.1821,139.6926 1038.0441,139.6926 C1055.2201,139.6926 1068.9601,125.7226 1068.9601,107.1736 M977.5871,107.1736 C977.5871,73.7386 1004.3811,46.9446 1038.0441,46.9446 C1071.2501,46.9446 1098.0431,73.7386 1098.0431,107.1736 C1098.0431,140.6086 1071.2501,167.4026 1038.0441,167.4026 C1004.3811,167.4026 977.5871,140.6086 977.5871,107.1736" id="Fill-16"></path><path d="M1178.1461,47.2644 L1178.1461,75.2014 C1152.2461,75.2014 1141.1461,87.7974 1141.1461,104.2854 L1141.1461,164.7834 L1113.1461,164.7834 L1113.1461,49.7834 L1141.1461,49.7834 L1141.1461,64.2094 C1149.0081,53.9054 1161.7271,47.2644 1178.1461,47.2644" id="Fill-17"></path></g></g></g></svg>